Coordinates
version=1
nRows=21
nColumns=28
inDegrees=yes

Units are S.I. units (second, meters, Newtons, ...)
Angles are in degrees.

endheader
time	pelvis_tilt	pelvis_list	pelvis_rotation	pelvis_tx	pelvis_ty	pelvis_tz	hip_flexion_r	hip_adduction_r	hip_rotation_r	knee_angle_r	ankle_angle_r	subtalar_angle_r	mtp_angle_r	hip_flexion_l	hip_adduction_l	hip_rotation_l	knee_angle_l	socket_flexion	socket_adduction	socket_rotation	socket_tx	socket_ty	socket_tz	foot_flex	lumbar_extension	lumbar_bending	lumbar_rotation
      0.64583333	     -3.59846395	     -2.85142216	      5.88467022	     -0.05489095	      0.97453488	      0.27477275	     31.21453459	      5.81475021	      0.62351226	     -9.27067502	     11.64630408	    -25.79332932	     -1.60780950	    -21.83140884	     -3.35808581	     17.27667531	      7.05905771	      7.18150541	      0.00000000	      0.00000000	      0.00000000	     -0.00080794	      0.00000000	     10.11486938	     -7.78458131	      1.10584615	     -1.47726507
      0.65000000	     -3.48995293	     -2.94526457	      5.99386600	     -0.04859792	      0.97363658	      0.27434168	     31.23189189	      5.99186309	      0.84415040	     -9.90041190	     11.35099031	    -25.88731137	     -1.52809003	    -22.22191871	     -3.48168861	     17.31095116	      6.88651210	      7.20906641	      0.00000000	      0.00000000	      0.00000000	     -0.00081166	      0.00000000	     10.14355212	     -7.84199679	      1.33190689	     -1.42222375
      0.65416667	     -2.80246829	     -3.10668279	      5.92712172	     -0.04212101	      0.97355425	      0.27422624	     30.53771764	      6.41385060	      1.19012120	    -10.30697375	     10.05221017	    -27.24880721	      0.25242930	    -23.40458744	     -3.68472961	     16.95856474	      7.07812563	      7.39035491	      0.00000000	      0.00000000	      0.00000000	     -0.00035333	      0.00000000	     10.15999403	     -8.54552219	      1.68912182	     -1.07415987
      0.65833333	     -2.79423187	     -3.15025229	      5.98994052	     -0.03573911	      0.97249579	      0.27393307	     30.75957570	      6.55023316	      1.27454559	    -11.17744506	      9.71988088	    -27.37305086	      0.36240748	    -23.69133848	     -3.73443765	     16.96421778	      6.90810110	      7.44919699	      0.00000000	      0.00000000	      0.00000000	     -0.00032675	      0.00000000	     10.14804900	     -8.47789992	      1.87831827	     -1.18200493
      0.66250000	     -2.75897410	     -3.21625395	      6.03370198	     -0.02927695	      0.97149230	      0.27363113	     30.95959711	      6.71015248	      1.27925582	    -12.07285937	      9.24708528	    -27.59466349	      0.68347758	    -24.00547844	     -3.79301860	     16.89378006	      6.73340165	      7.51527709	      0.00000000	      0.00000000	      0.00000000	     -0.00029111	      0.00000000	     10.13091365	     -8.41806031	      2.08269696	     -1.26814954
      0.66666667	     -2.66450781	     -3.30284948	      6.06449288	     -0.02273425	      0.97065116	      0.27332465	     31.05032535	      6.90007336	      1.29618176	    -12.87181855	      8.51534149	    -27.98410470	      1.61681167	    -24.38943658	     -3.87677256	     16.86297978	      6.56240247	      7.57841237	      0.00000000	      0.00000000	      0.00000000	     -0.00018733	      0.00000000	     10.09457394	     -8.40896789	      2.32496119	     -1.28915691
      0.67083333	     -2.61112960	     -3.38053856	      6.14355966	     -0.01637424	      0.96980954	      0.27300191	     31.15455747	      7.06369673	      1.46342440	    -13.64799281	      8.18209979	    -28.01856896	      1.72290677	    -24.67489556	     -3.97362642	     16.91867517	      6.34399905	      7.65348226	      0.00000000	      0.00000000	      0.00000000	     -0.00020111	      0.00000000	     10.02138474	     -8.39123657	      2.54319983	     -1.31715997
      0.67500000	     -2.49074374	     -3.46185665	      6.09393289	     -0.00976772	      0.96901586	      0.27274298	     31.30455861	      7.26232511	      1.32067856	    -14.65354268	      7.58244520	    -28.19032205	      1.98037935	    -25.06230829	     -3.98689466	     16.67417079	      6.08896094	      7.69909177	      0.00000000	      0.00000000	      0.00000000	     -0.00018003	      0.00000000	      9.91615513	     -8.40431669	      2.79532555	     -1.36093241
      0.67916667	     -2.42852899	     -3.55611127	      6.15740053	     -0.00337961	      0.96829470	      0.27250026	     31.37909294	      7.45141315	      1.50174058	    -15.40567242	      7.24000368	    -28.20059431	      2.09405908	    -25.33151833	     -4.10012707	     16.78132732	      5.83673299	      7.79342003	      0.00000000	      0.00000000	      0.00000000	     -0.00020384	      0.00000000	      9.82740030	     -8.39293800	      3.03392746	     -1.35790420
      0.68333333	     -1.96793062	     -3.71157353	      6.11395261	      0.00327775	      0.96815290	      0.27210019	     31.06598469	      7.69747222	      1.16123879	    -16.07727540	      4.69636601	    -29.88742688	      8.16880291	    -26.07001727	     -4.19985288	     16.42165963	      5.58520250	      7.86072326	      0.00000000	      0.00000000	      0.00000000	     -0.00004272	      0.00000000	      9.66181412	     -8.79974205	      3.40455035	     -1.26094961
      0.68750000	     -1.91858627	     -3.81977532	      6.07940706	      0.00985307	      0.96747746	      0.27186122	     31.24052550	      7.89110306	      1.07449443	    -17.02127729	      4.28549494	    -29.81714799	      8.19754117	    -26.30683718	     -4.24619385	     16.29718974	      5.24258816	      7.93267428	      0.00000000	      0.00000000	      0.00000000	     -0.00011564	      0.00000000	      9.49035013	     -8.74459478	      3.67307108	     -1.28089928
      0.69166667	     -1.82797441	     -3.94907002	      6.03510563	      0.01642712	      0.96692106	      0.27161575	     31.36204489	      8.10297078	      0.95664589	    -17.94841265	      3.83287648	    -29.72962550	      8.32680805	    -26.54331595	     -4.29779438	     16.13190153	      4.80022424	      7.96295903	      0.00000000	      0.00000000	      0.00000000	     -0.00023642	      0.00000000	      9.30595843	     -8.73070767	      3.95929186	     -1.24989097
      0.69583333	     -1.75563718	     -4.06365092	      6.02422592	      0.02288449	      0.96649125	      0.27140528	     31.42174132	      8.30796192	      1.04802369	    -18.74203377	      3.52454572	    -29.66433307	      8.38287425	    -26.75004974	     -4.37552273	     16.16813717	      4.42678999	      8.07705618	      0.00000000	      0.00000000	      0.00000000	     -0.00031928	      0.00000000	      9.09985413	     -8.72088644	      4.23002917	     -1.23342729
      0.70000000	     -1.49777217	     -4.23603936	      5.94930083	      0.02960725	      0.96635632	      0.27102202	     31.35765575	      8.51896532	      0.63872158	    -19.64760461	      2.86297842	    -29.42075923	      9.31505597	    -27.00120179	     -4.39163779	     15.80471859	      3.47959741	      7.80354075	      0.00000000	      0.00000000	      0.00000000	     -0.00048987	      0.00000000	      8.85466827	     -8.85413252	      4.56499322	     -1.00852362
      0.70416667	     -1.39624357	     -4.34341986	      5.84741215	      0.03613147	      0.96606451	      0.27082313	     31.44580078	      8.71047785	      0.55473890	    -20.57531051	      2.50376104	    -29.37186315	      9.48763410	    -27.20120513	     -4.38806245	     15.61433647	      3.01890768	      7.93179500	      0.00000000	      0.00000000	      0.00000000	     -0.00061032	      0.00000000	      8.54120534	     -8.89554835	      4.85793251	     -1.04685572
      0.70833333	     -1.19226472	     -4.49999760	      5.78512042	      0.04268373	      0.96606658	      0.27044340	     31.36824138	      8.90304165	      0.33537601	    -21.37995568	      2.04885012	    -29.09046475	     10.26350232	    -27.33247273	     -4.39739303	     15.35119417	      2.06546363	      7.75988968	      0.00000000	      0.00000000	      0.00000000	     -0.00078905	      0.00000000	      8.29892822	     -9.02694565	      5.20134703	     -0.88751812
      0.71250000	     -1.04378509	     -4.62140690	      5.66290489	      0.04935112	      0.96602305	      0.27027814	     31.35690203	      9.09416876	      0.16967431	    -22.24745750	      1.72273437	    -28.92973894	     10.67657359	    -27.49125512	     -4.38248400	     15.13565100	      1.36034026	      7.75881657	      0.00000000	      0.00000000	      0.00000000	     -0.00087231	      0.00000000	      7.96153286	     -9.08451896	      5.47685427	     -0.86364736
      0.71666667	     -0.93025574	     -4.75359534	      5.56971777	      0.05592982	      0.96603183	      0.27011265	     31.32559260	      9.30193386	      0.15853870	    -23.02044226	      1.48327778	    -28.81541793	     10.82979924	    -27.61949143	     -4.40881150	     15.04091265	      0.78023351	      7.87893166	      0.00000000	      0.00000000	      0.00000000	     -0.00099072	      0.00000000	      7.59101460	     -9.09951725	      5.76231344	     -0.83353848
      0.72083333	     -0.73776519	     -4.72231827	      5.67264574	      0.06242743	      0.96635671	      0.26916580	     31.30651902	      9.03796258	     -0.69751359	    -23.95608635	      1.06627862	    -27.68569893	     14.64307447	    -27.30267078	     -4.17696591	     14.88439807	     -1.24964006	      7.15458903	      0.00000000	      0.00000000	      0.00000000	     -0.00115287	      0.00000000	      7.28475362	     -9.19995334	      5.91503592	     -0.85971341
      0.72500000	     -0.49230094	     -4.89140324	      5.53000248	      0.06905313	      0.96675690	      0.26893239	     31.05902033	      9.28387993	     -0.74735967	    -24.60663152	      0.83275940	    -27.45901373	     14.86995883	    -27.38326685	     -4.16101625	     14.51461691	     -2.33761502	      7.00113371	      0.00000000	      0.00000000	      0.00000000	     -0.00119169	      0.00000000	      6.90419959	     -9.37063630	      6.23923444	     -0.67234788
      0.72916667	     -0.37771768	     -5.01779362	      5.35352535	      0.07578683	      0.96695873	      0.26882890	     30.97878872	      9.48362385	     -0.82644411	    -25.35072329	      0.66503173	    -27.36997269	     14.92246936	    -27.47205094	     -4.13702157	     14.30713276	     -2.97212916	      7.16610733	      0.00000000	      0.00000000	      0.00000000	     -0.00124920	      0.00000000	      6.49102544	     -9.38445608	      6.51544452	     -0.65760639
